<?xml version="1.0" encoding="utf-8"?>
<!-- Generator: Adobe Illustrator 19.0.0, SVG Export Plug-In . SVG Version: 6.00 Build 0)  -->
<svg version="1.1" id="Layer_1" xmlns="http://www.w3.org/2000/svg" xmlns:xlink="http://www.w3.org/1999/xlink" x="0px" y="0px"
	 viewBox="0 0 271.3 33.9" style="enable-background:new 0 0 271.3 33.9;" xml:space="preserve">
<style type="text/css">
	.st0{fill:#FFFFFF;}
</style>
<g id="XMLID_2_">
	<path id="XMLID_3_" class="st0" d="M32.8,13.5c3.9,0,6.9,0.7,9,2.2c2,1.5,3.1,3.7,3.1,6.6c0,1.6-0.3,3.1-0.8,4.4
		c-0.5,1.3-1.3,2.4-2.4,3.3c-1.1,0.9-2.6,1.6-4.3,2.1s-3.8,0.7-6.3,0.7H1.2l6.4-8.3h24.3c1.2,0,2-0.2,2.6-0.6c0.5-0.4,0.8-1,0.8-1.8
		c0-0.8-0.3-1.4-0.8-1.8c-0.5-0.4-1.4-0.5-2.6-0.5H14.4c-2.1,0-3.9-0.2-5.4-0.7c-1.5-0.4-2.8-1.1-3.7-1.9c-1-0.8-1.7-1.8-2.2-2.9
		c-0.5-1.1-0.7-2.4-0.7-3.8c0-1.5,0.3-2.9,0.8-4.1c0.5-1.2,1.3-2.3,2.4-3.1c1.1-0.9,2.5-1.5,4.3-2c1.7-0.5,3.8-0.7,6.3-0.7H44
		L37.6,9H15.3c-1.2,0-2,0.2-2.6,0.5c-0.6,0.3-0.8,0.9-0.8,1.7s0.3,1.4,0.8,1.8c0.6,0.3,1.4,0.5,2.6,0.5H32.8z"/>
	<path id="XMLID_5_" class="st0" d="M71.7,0.1c7.8,0,13.7,1.3,17.6,4c3.9,2.7,5.9,6.8,5.9,12.6c0,5.8-2,10-5.9,12.6
		c-3.9,2.7-9.8,4-17.6,4c-7.9,0-13.8-1.3-17.6-4c-3.9-2.7-5.8-6.9-5.8-12.6c0-5.7,2-9.9,5.9-12.6C58,1.4,63.9,0.1,71.7,0.1z
		 M71.7,24.9c2.5,0,4.6-0.1,6.3-0.3c1.7-0.2,3.1-0.6,4.2-1.2c1.1-0.6,1.8-1.4,2.3-2.5c0.5-1.1,0.7-2.5,0.7-4.2s-0.2-3.1-0.7-4.2
		c-0.5-1.1-1.3-1.9-2.3-2.5c-1.1-0.6-2.5-1-4.2-1.2c-1.7-0.2-3.8-0.3-6.3-0.3c-2.5,0-4.6,0.1-6.3,0.3C63.6,9,62.2,9.4,61.2,10
		c-1.1,0.6-1.8,1.4-2.3,2.5c-0.5,1.1-0.7,2.5-0.7,4.2s0.2,3.1,0.7,4.2c0.5,1.1,1.3,1.9,2.3,2.5c1.1,0.6,2.5,1,4.2,1.2
		C67.1,24.8,69.2,24.9,71.7,24.9z"/>
	<path id="XMLID_8_" class="st0" d="M135,24.5l-6.4,8.3h-28.4V0.6h9.9v23.9H135z"/>
	<path id="XMLID_10_" class="st0" d="M140,0.6L154.4,22l15.1-21.3h11.7l-20.5,29c-0.7,0.9-1.6,1.8-2.6,2.5c-1,0.7-2.3,1.1-3.8,1.1
		c-1.5,0-2.8-0.3-3.8-1c-1-0.7-1.9-1.5-2.6-2.6l-20.1-29H140z"/>
	<path id="XMLID_12_" class="st0" d="M222,24.5l-6.4,8.3h-30.9V0.6H222L215.5,9h-20.8v3.8h25.4l-5.7,7.3h-19.7v4.4H222z"/>
	<path id="XMLID_14_" class="st0" d="M271,32.8h-13.3l-7.2-8.5h-15.3v8.5h-9.9V16.3h27.9c1.5,0,2.8-0.3,3.9-1
		c1.1-0.6,1.6-1.5,1.6-2.6c0-1.2-0.5-2.2-1.4-2.8c-1-0.6-2.3-0.9-4-0.9h-27.9l6.5-8.4h20.6c1.8,0,3.7,0.2,5.7,0.5
		c2,0.3,3.7,0.9,5.3,1.8c1.6,0.9,2.9,2,4,3.5c1,1.5,1.6,3.4,1.6,5.7c0,1.2-0.2,2.4-0.6,3.6c-0.4,1.1-0.9,2.1-1.7,3
		c-0.7,0.9-1.6,1.7-2.6,2.3c-1,0.6-2.2,1.1-3.5,1.3c0.5,0.4,1.2,0.9,1.8,1.6c0.7,0.6,1.6,1.5,2.7,2.6L271,32.8z"/>
</g>
</svg>
